<svg width="64" height="48" viewBox="0 0 64 48" fill="none" xmlns="http://www.w3.org/2000/svg">
<rect width="64" height="48" rx="8" fill="#111111"/>
<g clip-path="url(#clip0_0_2546)">
<path fill-rule="evenodd" clip-rule="evenodd" d="M44.1861 19.936C45.0086 19.936 45.6753 19.2788 45.6753 18.468C45.6753 17.6573 45.0086 17 44.1861 17C43.3637 17 42.697 17.6573 42.697 18.468C42.697 19.2788 43.3637 19.936 44.1861 19.936ZM28.3019 21.5656C25.6662 21.5656 23.5268 23.6795 23.5268 26.273C23.5268 28.8665 25.6712 30.9805 28.3019 30.9805C30.9328 30.9805 33.0771 28.8665 33.0771 26.273C33.0771 23.6795 30.9378 21.5656 28.3019 21.5656ZM28.3019 28.754C26.917 28.754 25.7903 27.6432 25.7903 26.2779C25.7903 24.9127 26.917 23.8018 28.3019 23.8018C29.6869 23.8018 30.8137 24.9127 30.8137 26.2779C30.8137 27.6432 29.6869 28.754 28.3019 28.754ZM18.1857 21.5558C18.3098 21.5558 18.429 21.5607 18.553 21.5705C19.5954 21.6585 20.5535 22.1332 21.2534 22.9064C21.9532 23.6746 22.3404 24.668 22.3404 25.7005V30.7897H20.0571V25.6369C20.0521 24.6239 19.2033 23.797 18.1708 23.797C18.1113 23.797 18.0467 23.8018 17.9822 23.8067C17.059 23.8997 16.2846 24.761 16.2846 25.6907V30.7897H14.0012V25.6515C13.9963 24.6337 13.1524 23.8018 12.12 23.8018C12.0604 23.8018 11.9959 23.8067 11.9313 23.8116C11.013 23.9046 10.2337 24.7659 10.2337 25.7005V30.7897H8V25.6369C8 23.3859 9.86143 21.5558 12.1448 21.5558C13.2865 21.5558 14.3735 22.0255 15.1578 22.8427C15.9421 22.0206 17.0341 21.5558 18.1857 21.5558ZM36.5916 17.2202H34.3082V30.7994H36.5916V17.2202ZM38.6763 17.2202H40.9597V30.7994H38.6763V17.2202ZM45.3278 21.7907H43.0445V30.7945H45.3278V21.7907ZM54.6746 22.8868C55.5284 23.7431 56 24.8686 56 26.0626V27.0951H49.0556C49.3634 28.1815 50.3661 28.9449 51.5276 28.9449C52.436 28.9449 53.255 28.4897 53.7266 27.7215L53.8209 27.5698L55.7071 28.4848L55.5979 28.6659C54.7392 30.0899 53.1657 30.9756 51.4879 30.9756H51.483C50.2023 30.9756 49.001 30.4765 48.0927 29.5712C47.1843 28.6659 46.6929 27.4719 46.7078 26.2094C46.7227 24.9714 47.219 23.8116 48.1026 22.9357C48.9861 22.0598 50.1675 21.5705 51.4184 21.5558H51.478C52.6842 21.5558 53.8159 22.0304 54.6746 22.8868ZM53.6918 25.2356C53.3642 24.2765 52.4311 23.6012 51.3886 23.6012C50.3462 23.6012 49.413 24.2765 49.0904 25.2356H53.6918Z" fill="white"/>
</g>
<defs>
<clipPath id="clip0_0_2546">
<rect width="48" height="14" fill="white" transform="translate(8 17)"/>
</clipPath>
</defs>
</svg>
