<svg width="32" height="24" viewBox="0 0 32 24" fill="none" xmlns="http://www.w3.org/2000/svg">
<rect width="32" height="24" rx="4" fill="#FFB3C7"/>
<path d="M28.2598 13.4431C27.851 13.4431 27.5196 13.7856 27.5196 14.2082C27.5196 14.6307 27.851 14.9734 28.2598 14.9734C28.6686 14.9734 29 14.6308 29 14.2082C29 13.7856 28.6686 13.4431 28.2598 13.4431ZM25.8245 12.8515C25.8245 12.2729 25.3461 11.804 24.756 11.804C24.1659 11.804 23.6874 12.2729 23.6874 12.8515C23.6874 13.4301 24.1658 13.8991 24.756 13.8991C25.3462 13.8991 25.8245 13.4301 25.8245 12.8515ZM25.8285 10.8156H27.0077V14.8873H25.8285V14.627C25.4953 14.8619 25.0932 15 24.6594 15C23.5116 15 22.5811 14.0381 22.5811 12.8515C22.5811 11.6648 23.5116 10.703 24.6594 10.703C25.0932 10.703 25.4953 10.8411 25.8285 11.076V10.8156ZM16.391 11.3459V10.8156H15.1837V14.8872H16.3938V12.9863C16.3938 12.3449 17.0662 12.0002 17.5328 12.0002C17.5376 12.0002 17.5421 12.0006 17.5468 12.0007V10.8159C17.0679 10.8159 16.6275 11.0278 16.391 11.3459ZM13.3835 12.8515C13.3835 12.2729 12.905 11.804 12.3149 11.804C11.7247 11.804 11.2463 12.2729 11.2463 12.8515C11.2463 13.4301 11.7247 13.8991 12.3149 13.8991C12.905 13.8991 13.3835 13.4301 13.3835 12.8515ZM13.3874 10.8156H14.5667V14.8873H13.3874V14.6271C13.0542 14.8619 12.6521 15 12.2184 15C11.0705 15 10.1399 14.0381 10.1399 12.8515C10.1399 11.6649 11.0705 10.703 12.2184 10.703C12.6521 10.703 13.0542 10.8411 13.3874 11.076V10.8156ZM20.4856 10.7061C20.0145 10.7061 19.5686 10.8572 19.2705 11.2744V10.8158H18.0964V14.8873H19.285V12.7476C19.285 12.1284 19.6866 11.8252 20.1703 11.8252C20.6886 11.8252 20.9865 12.1453 20.9865 12.7392V14.8873H22.1644V12.2981C22.1644 11.3505 21.4356 10.7061 20.4856 10.7061ZM8.42215 14.8873H9.65647V9.00111H8.42215V14.8873ZM3 14.8889H4.30702V9.00001H3V14.8889ZM7.57152 9.00001C7.57152 10.2749 7.0909 11.4609 6.2345 12.3424L8.04117 14.8891H6.42683L4.46339 12.1214L4.97012 11.7291C5.81048 11.0784 6.29249 10.0837 6.29249 9L7.57152 9.00001Z" fill="#0A0B09"/>
</svg>
