<svg width="32" height="24" viewBox="0 0 32 24" fill="none" xmlns="http://www.w3.org/2000/svg">
<rect width="32" height="24" rx="4" fill="black"/>
<path d="M24.5 16.5984C24.484 16.8853 24.3354 17.1475 24.1018 17.3033L16.3994 21.9021C16.1789 22.0326 15.8206 22.0326 15.6006 21.9021L7.89822 17.3033C7.67774 17.1728 7.5 16.86 7.5 16.5984V7.40207C7.51538 7.11455 7.66237 6.85288 7.89822 6.69648L15.6006 2.09834C15.8206 1.96722 16.1789 1.96722 16.3994 2.09834L24.1018 6.69648C24.3217 6.82525 24.5 7.13983 24.5 7.40207V16.5984Z" fill="white"/>
<path d="M20.018 12.0208L18.0035 15.0689L16.9757 13.4426L18.1618 11.6098C18.3823 11.2834 18.854 10.3832 18.3088 9.15902C17.8678 8.16001 16.9107 7.68433 16.0722 7.68433C15.233 7.68433 14.3209 8.12767 13.8264 9.15902C13.2704 10.3421 13.7529 11.2629 13.9626 11.5774L15.1709 13.422L16.063 14.7562L17.4053 16.8812C17.4161 16.8924 17.6252 17.2275 18.0035 17.2275C18.3595 17.2275 18.58 16.8924 18.6137 16.86L21.7601 12.0437H20.018V12.0208ZM16.063 12.0967L15.1908 10.6978C14.8233 10.0798 15.233 9.15902 16.063 9.15902C16.8908 9.15902 17.3004 10.0798 16.9336 10.6978L16.063 12.0967Z" fill="url(#paint0_radial_0_2751)"/>
<path d="M14.1319 14.972L12.1578 12.1078L11.2874 10.709C10.9204 10.0916 11.33 9.16788 12.1578 9.16788C12.2621 9.16788 12.3578 9.17964 12.4513 9.21198L13.1457 7.90016C12.8295 7.75786 12.4849 7.68201 12.1687 7.68201C11.33 7.68201 10.4152 8.12771 9.92347 9.15906C9.36687 10.3398 9.84998 11.2629 10.0591 11.5775L13.5132 16.86C13.5439 16.9018 13.7644 17.2393 14.1319 17.2393C14.4987 17.2393 14.7078 16.913 14.7415 16.8695L15.7784 15.2318L14.8884 13.8765L14.1319 14.972Z" fill="url(#paint1_radial_0_2751)"/>
<defs>
<radialGradient id="paint0_radial_0_2751" cx="0" cy="0" r="1" gradientUnits="userSpaceOnUse" gradientTransform="translate(15.4073 8.51958) scale(9.28136 10.8132)">
<stop stop-color="#FFCC00"/>
<stop offset="0.09157" stop-color="#FFC800"/>
<stop offset="0.1739" stop-color="#FFBD00"/>
<stop offset="0.2528" stop-color="#FFAB00"/>
<stop offset="0.3295" stop-color="#FF9100"/>
<stop offset="0.4046" stop-color="#FF7000"/>
<stop offset="0.4786" stop-color="#FF4700"/>
<stop offset="0.5503" stop-color="#FF1800"/>
<stop offset="0.5822" stop-color="#FF0000"/>
<stop offset="1" stop-color="#FF0000"/>
</radialGradient>
<radialGradient id="paint1_radial_0_2751" cx="0" cy="0" r="1" gradientUnits="userSpaceOnUse" gradientTransform="translate(9.8132 9.07104) scale(8.51046 13.2995)">
<stop stop-color="#00B4E6"/>
<stop offset="0.201" stop-color="#00B0E3"/>
<stop offset="0.3898" stop-color="#01A5DB"/>
<stop offset="0.5737" stop-color="#0292CD"/>
<stop offset="0.7546" stop-color="#0377BA"/>
<stop offset="0.9316" stop-color="#0455A1"/>
<stop offset="1" stop-color="#054696"/>
</radialGradient>
</defs>
</svg>
