<svg height="40" viewBox="0 0 62 40" width="62" xmlns="http://www.w3.org/2000/svg"><g fill="none" fill-rule="evenodd"><rect fill="#fff" height="17" rx="3" stroke="#000" stroke-opacity=".1" width="23" x="19.5" y="11.5"/><g transform="translate(24.813 14.938)"><path d="m6.24697843 4.25509713c1.17784727 0 2.13259595-.94380152 2.13259595-2.10801436 0-1.16412669-.95474868-2.10797128-2.13259595-2.10797128-1.17780369 0-2.13255237.94384459-2.13255237 2.10797128 0 1.16421284.95474868 2.10801436 2.13255237 2.10801436" fill="#019acc"/><path d="m5.77786136 4.72344426c-.71321831 0-1.32743662-.27399578-1.71803346-.57857433-2.32828653.24151774-4.0598279.58382939-4.0598279.58382939v.89630068h12.375c0-1.25809291 0-1.88713936 0-1.88713936s-2.1396985-.01296537-4.55508935.11475c-.40623988.4353522-1.1227698.87083362-2.04204929.87083362z" fill="#019acc"/><g fill="#003466"><path d="m1.467 9.563h-1.467v-3.375h1.467v1.518l.872-1.518h1.76l-1.289 1.744 1.216 1.631h-1.679l-.87-1.269z"/><path d="m12.3516879 9.38332439c-.3462821.11261141-.8013684.17917561-1.2085669.17917561-1.45162232 0-2.51735383-.43953726-2.51735383-1.71785773 0-1.15521848 1.0329639-1.65714227 2.44502113-1.65714227.3924705 0 .8909564.04614004 1.2808996.17875784l-.0005228 1.11896559c-.2889824-.18646332-.5779648-.30269537-.9918302-.30269537-.5385739 0-1.0768428.28254972-1.0768428.69265761 0 .41117553.5358723.69275046 1.0768428.69275046.4072421 0 .7028478-.12013121.9918302-.2980071zm-6.54545991-1.76549658h.73077861c.2824463 0 .39308055-.12637241.39308055-.3201659 0-.22209013-.11163645-.33296676-.37268794-.33296676h-.75125836zm0 1.25852678h.76502773c.28671655 0 .38440933-.13113664.38440933-.32483389 0-.19379349-.09865141-.33301488-.38114128-.33301488h-.76838292zm-1.4672654-2.68885459h2.96603477c.77047447 0 1.02298547.33089745 1.02298547.84605993 0 .57666436-.46658978.82724363-.94590316.85549214v.00952846c.49212412.04258934.97152464.10394685.97152464.78460618 0 .44442087-.252511.87931329-1.09998063.87931329h-2.91466109z"/></g></g></g></svg>